<?xml version="1.0" standalone="no"?>
<!DOCTYPE svg PUBLIC "-//W3C//DTD SVG 20010904//EN"
 "http://www.w3.org/TR/2001/REC-SVG-20010904/DTD/svg10.dtd">
<svg version="1.0" xmlns="http://www.w3.org/2000/svg"
 width="225.000000pt" height="225.000000pt" viewBox="0 0 225.000000 225.000000"
 preserveAspectRatio="xMidYMid meet">
<metadata>
Created by potrace 1.14, written by Peter Selinger 2001-2017
</metadata>
<g transform="translate(0.000000,225.000000) scale(0.100000,-0.100000)"
fill="#000000" stroke="none">
<path d="M1043 1990 c-45 -27 -1004 -825 -1027 -855 -19 -24 -19 -24 7 -62 42
-60 94 -113 112 -113 8 0 230 179 493 398 262 219 482 401 489 405 8 5 193
-143 499 -398 267 -223 493 -405 501 -405 17 0 73 56 110 112 19 28 22 41 14
55 -5 11 -77 75 -160 144 l-151 124 0 292 c0 252 -2 294 -16 307 -21 21 -315
24 -332 3 -7 -8 -13 -72 -14 -156 l-3 -142 -175 146 c-96 81 -185 151 -198
156 -41 16 -115 10 -149 -11z"/>
<path d="M720 1321 l-395 -327 -3 -325 c-1 -178 0 -339 3 -358 4 -18 17 -44
30 -57 l24 -24 286 0 285 0 0 265 0 265 175 0 175 0 0 -265 0 -265 284 0 285
0 28 24 28 24 3 355 3 355 -118 99 c-296 248 -682 563 -690 562 -4 0 -186
-148 -403 -328z"/>
</g>
</svg>
